<?xml version="1.0" standalone="no"?><!DOCTYPE svg PUBLIC "-//W3C//DTD SVG 1.1//EN" "http://www.w3.org/Graphics/SVG/1.1/DTD/svg11.dtd"><svg t="1493461240497" class="icon" style="" viewBox="0 0 1024 1024" version="1.1" xmlns="http://www.w3.org/2000/svg" p-id="7049" xmlns:xlink="http://www.w3.org/1999/xlink" width="48" height="48"><defs><style type="text/css"></style></defs><path d="M910.613467 915.232675c0 19.942211-16.19179 36.16777-36.134001 36.16777-20.006679 0-36.230192-16.224536-36.230192-36.16777l-0.314155-3.375891c0-1.407047 0.281409-2.782372 0.437975-4.252865-22.631462-158.734393-158.766115-275.486584-324.597144-277.331607-1.343602 0.064468-2.563385 0.218988-3.906987 0.218988-1.343602 0-2.562361-0.154519-3.906987-0.218988-163.892885 1.845023-298.778079 115.972431-323.629095 272.050318 0.845252 3.032059 1.407047 6.188962 1.407047 9.534153l0.342808 3.375891c0 20.316742-16.441477 36.791988-36.729566 36.791988-20.255343 0-36.761289-16.475246-36.761289-36.791988l-0.030699-0.343831-0.687662 0c0.094144-1.062193 0.312109-2.064011 0.437975-3.095504 0-3.062759 0.468675-5.939275 1.155314-8.752347 18.849319-146.417867 116.941503-264.765394 250.481048-315.782375-77.741673-49.826875-128.475198-137.822086-128.475198-238.351788 0-155.545768 120.880212-281.646893 276.39528-281.646893 155.545768 0 276.42598 126.101126 276.42598 281.646893 0 100.529701-50.671104 188.463514-128.382077 238.290389 132.602196 50.639381 230.287104 167.611583 250.16894 312.592727 1.343602 3.750421 2.219553 7.813974 2.219553 12.066839L910.613467 915.232675 910.613467 915.232675zM722.682072 348.970275c0-117.598466-95.309811-212.94-212.874508-212.94-117.598466 0-212.908277 95.341534-212.908277 212.94 0 117.56572 95.309811 212.874508 212.908277 212.874508C627.373284 561.845806 722.682072 466.535995 722.682072 348.970275L722.682072 348.970275zM722.682072 348.970275" p-id="7050" fill="#bfbfbf"></path></svg>