<?xml version="1.0" standalone="no"?><!DOCTYPE svg PUBLIC "-//W3C//DTD SVG 1.1//EN" "http://www.w3.org/Graphics/SVG/1.1/DTD/svg11.dtd"><svg t="1493452588137" class="icon" style="" viewBox="0 0 1024 1024" version="1.1" xmlns="http://www.w3.org/2000/svg" p-id="5252" xmlns:xlink="http://www.w3.org/1999/xlink" width="48" height="48"><defs><style type="text/css"></style></defs><path d="M543.012829 782.697235c-25.174356 0-45.653783 20.478404-45.653783 45.654806s20.482497 45.652759 45.653783 45.652759c25.176402 0 45.652759-20.476357 45.652759-45.652759S568.188208 782.697235 543.012829 782.697235z" p-id="5253" fill="#bfbfbf"></path><path d="M772.312212 64.089667 313.712423 64.089667c-36.169781 0-65.491597 29.321816-65.491597 65.491597L248.220826 894.556882c0 36.170804 29.321816 65.491597 65.491597 65.491597l458.599789 0c36.169781 0 65.491597-29.320793 65.491597-65.491597L837.803809 129.581264C837.803809 93.41046 808.48097 64.089667 772.312212 64.089667zM329.633021 122.988102 756.390591 122.988102c12.432147 0 22.512736 10.079566 22.512736 22.512736l0 551.508829L307.120284 697.009667 307.120284 145.500838C307.120284 133.066645 317.199851 122.988102 329.633021 122.988102zM756.390591 901.149021 329.633021 901.149021c-12.43317 0-22.512736-10.079566-22.512736-22.512736L307.120284 755.910149 778.903328 755.910149l0 122.727159C778.903328 891.070478 768.822738 901.149021 756.390591 901.149021z" p-id="5254" fill="#bfbfbf"></path></svg>